<?xml version="1.0" standalone="no"?>
<!DOCTYPE svg PUBLIC "-//W3C//DTD SVG 20010904//EN"
 "http://www.w3.org/TR/2001/REC-SVG-20010904/DTD/svg10.dtd">
<svg version="1.0" xmlns="http://www.w3.org/2000/svg"
 width="1536.000000pt" height="1024.000000pt" viewBox="0 0 1536.000000 1024.000000"
 preserveAspectRatio="xMidYMid meet">

<g transform="translate(0.000000,1024.000000) scale(0.100000,-0.100000)"
fill="#000000" stroke="none">
<path d="M0 5120 l0 -5120 7680 0 7680 0 0 5120 0 5120 -7680 0 -7680 0 0
-5120z m4480 1950 c129 -17 231 -48 355 -110 200 -99 365 -253 478 -447 23
-40 44 -72 47 -73 3 0 17 22 31 48 77 140 249 323 386 413 209 136 445 196
670 170 452 -52 800 -381 878 -830 74 -421 -117 -905 -476 -1206 -113 -95
-165 -129 -389 -260 -345 -201 -532 -340 -738 -548 l-123 -124 92 -119 c51
-65 150 -190 220 -276 140 -170 155 -194 145 -231 -8 -33 -130 -127 -165 -127
-36 0 -71 38 -221 240 -142 190 -238 310 -249 310 -7 0 -216 -276 -313 -412
-76 -108 -112 -119 -182 -58 -47 42 -53 73 -23 119 13 20 106 134 206 253 99
119 181 222 181 228 0 6 -48 59 -107 118 -263 262 -482 412 -919 630 -209 104
-240 122 -350 208 -207 160 -394 424 -472 664 -159 487 -26 973 339 1238 196
142 465 212 699 182z m4052 -575 l0 -100 -251 -3 -251 -2 0 -145 0 -145 230 0
230 0 0 -100 0 -100 -230 0 -230 0 0 -155 0 -155 260 0 260 0 0 -100 0 -100
-372 0 -373 0 2 598 c2 328 3 600 3 605 0 4 162 6 361 5 l361 -3 0 -100z m650
-216 c107 -23 191 -85 229 -172 21 -48 23 -68 26 -252 2 -110 4 -260 6 -333
l2 -132 -97 0 -97 0 -6 55 -7 55 -22 -33 c-12 -18 -47 -45 -81 -62 -54 -28
-67 -30 -159 -30 -122 0 -185 24 -245 91 -44 50 -61 100 -61 178 0 68 20 119
63 164 65 69 135 90 337 106 l145 11 -3 40 c-8 101 -64 149 -166 142 -53 -3
-62 -7 -92 -40 -19 -20 -34 -46 -34 -58 0 -18 -4 -21 -28 -16 -16 3 -64 9
-106 13 l-78 7 7 36 c14 74 76 155 148 192 88 45 213 60 319 38z m918 -18 c71
-27 134 -88 159 -155 10 -28 18 -52 16 -54 -2 -2 -171 -31 -185 -32 -3 0 -13
15 -23 33 -27 49 -64 67 -141 67 -58 0 -70 -3 -91 -25 -35 -34 -33 -77 4 -107
15 -13 64 -34 107 -47 140 -39 225 -73 268 -105 124 -94 117 -297 -14 -392
-72 -53 -138 -69 -270 -68 -95 0 -125 5 -174 24 -96 37 -163 111 -179 198 -5
22 -3 32 6 33 6 0 48 6 92 13 83 14 95 13 95 -7 0 -18 46 -64 81 -83 36 -18
146 -22 177 -5 37 20 52 42 52 77 0 51 -31 75 -135 107 -234 72 -294 106 -336
190 -17 33 -20 54 -17 118 3 67 7 83 33 121 34 48 117 102 179 117 68 17 233
7 296 -18z m471 -18 c6 -16 56 -154 110 -307 54 -153 100 -280 102 -282 1 -1
50 136 107 307 l105 309 113 0 c113 0 113 0 106 -22 -3 -13 -91 -252 -194
-533 -103 -280 -200 -545 -215 -587 l-27 -76 -114 1 c-63 1 -114 3 -114 4 0 1
25 72 55 157 30 85 55 160 55 167 0 13 -114 316 -256 683 -41 104 -74 193 -74
198 0 4 52 8 115 8 l115 0 11 -27z m1209 -1345 c0 -230 0 -233 18 -203 10 17
43 44 73 60 51 28 60 30 164 30 94 0 116 -3 150 -22 53 -28 89 -68 117 -128
22 -49 23 -59 26 -392 l3 -343 -105 0 -104 0 -4 298 c-3 277 -4 299 -23 332
-29 50 -77 72 -147 67 -67 -4 -115 -35 -144 -94 -17 -34 -19 -67 -22 -320 l-3
-283 -110 0 -109 0 0 615 0 615 110 0 110 0 0 -232z m-2760 -398 l0 -600 -107
0 -108 0 3 412 c1 226 -1 408 -5 404 -5 -4 -73 -166 -153 -359 l-145 -352 -96
-3 -95 -3 -91 228 c-51 125 -117 289 -147 363 l-56 135 0 -412 0 -413 -110 0
-110 0 0 595 0 595 144 0 144 0 103 -247 c56 -137 131 -318 165 -402 35 -85
65 -148 68 -140 15 43 220 579 253 664 22 55 43 108 46 118 6 15 22 17 152 17
l145 0 0 -600z m1350 400 l0 -130 105 0 105 0 0 -85 0 -85 -105 0 -105 0 0
-236 0 -236 31 -30 c30 -30 32 -31 100 -24 l69 6 0 -90 0 -89 -42 -12 c-60
-16 -174 -5 -237 22 -60 25 -113 81 -129 138 -8 25 -12 129 -12 295 l0 256
-70 0 -70 0 0 85 0 85 70 0 70 0 0 113 0 114 93 15 c50 8 100 16 110 17 15 1
17 -11 17 -129z m-614 -144 c73 -33 125 -83 154 -149 20 -44 21 -65 21 -310 0
-144 3 -292 8 -329 l7 -68 -102 0 -102 0 -7 63 c-6 44 -10 56 -15 42 -12 -31
-60 -72 -115 -96 -73 -33 -219 -33 -290 -1 -102 47 -155 129 -155 242 0 77 22
130 71 177 67 63 150 85 373 99 l108 6 -6 45 c-13 95 -53 134 -143 141 -48 3
-64 0 -93 -20 -19 -13 -42 -38 -52 -56 -9 -19 -19 -36 -21 -39 -3 -2 -48 1
-101 7 -111 14 -113 18 -72 105 35 76 119 141 213 165 21 5 88 8 148 6 95 -2
118 -6 171 -30z m1439 19 c72 -19 153 -72 189 -123 32 -46 62 -131 50 -141 -9
-8 -151 -31 -186 -31 -9 0 -24 17 -35 37 -10 21 -34 48 -53 61 -48 32 -149 28
-197 -7 -60 -45 -89 -145 -80 -278 11 -177 104 -260 245 -218 50 15 102 61
102 90 0 23 15 25 97 15 129 -17 123 -14 111 -57 -17 -62 -44 -107 -88 -147
-53 -48 -114 -74 -207 -88 -176 -28 -344 42 -427 175 -78 126 -85 367 -16 511
31 65 95 138 145 164 98 51 238 66 350 37z"/>
<path d="M4290 6919 c-355 -31 -639 -278 -731 -637 -137 -536 268 -1205 828
-1367 200 -58 430 -19 610 103 74 50 193 175 232 244 40 69 77 181 96 292 20
119 20 368 -1 477 -106 561 -536 930 -1034 888z m95 -355 c25 -10 47 -62 40
-95 -13 -60 -95 -80 -140 -34 -64 63 13 162 100 129z m379 -19 c65 -60 0 -163
-84 -134 -36 13 -50 36 -50 83 0 68 82 99 134 51z m-666 -198 c48 -44 11 -137
-56 -137 -44 0 -82 35 -82 75 0 48 9 66 43 80 36 15 64 9 95 -18z m350 -143
c12 -14 22 -36 22 -50 0 -31 -50 -84 -79 -84 -71 0 -114 73 -75 128 33 48 92
50 132 6z m373 7 c17 -13 23 -29 23 -56 0 -86 -118 -116 -153 -38 -16 35 -14
57 10 87 25 32 84 36 120 7z m-802 -208 c11 -10 24 -32 27 -50 5 -27 1 -37
-24 -63 -78 -77 -189 18 -121 104 25 32 85 36 118 9z m970 -108 c31 -15 41
-33 41 -70 0 -37 -10 -55 -42 -71 -56 -29 -118 4 -118 63 0 76 54 112 119 78z
m-348 -5 c21 0 49 -42 49 -73 0 -67 -59 -103 -118 -73 -40 21 -54 64 -36 111
8 20 63 46 82 40 8 -3 18 -5 23 -5z m-308 -51 c33 -40 21 -101 -25 -125 -24
-12 -36 -13 -64 -4 -51 17 -70 71 -43 121 23 43 99 47 132 8z m-188 -264 c65
-64 -11 -163 -100 -129 -25 10 -47 62 -40 95 13 60 95 80 140 34z m748 -55
c33 -26 41 -63 23 -99 -17 -33 -34 -41 -81 -41 -24 0 -39 7 -54 26 -62 79 34
176 112 114z m-362 -19 c31 -32 34 -45 19 -86 -11 -30 -60 -54 -96 -47 -31 6
-64 47 -64 79 0 33 51 83 85 83 16 0 38 -12 56 -29z"/>
<path d="M6270 6924 c-168 -26 -285 -68 -403 -147 -170 -114 -321 -296 -388
-471 l-31 -80 20 -100 c32 -159 34 -171 33 -330 0 -100 -9 -218 -26 -350 -28
-221 -34 -551 -15 -747 12 -112 55 -337 73 -382 l12 -27 135 121 c232 209 349
293 670 479 236 137 317 191 414 275 177 154 328 397 393 630 25 91 28 115 27
260 0 144 -3 169 -27 248 -105 343 -377 578 -715 617 -87 10 -125 11 -172 4z
m148 -266 c7 -7 12 -16 12 -21 0 -5 -41 -52 -92 -104 l-92 -94 60 -60 60 -60
143 145 c135 135 144 143 161 127 16 -15 12 -21 -74 -111 -50 -52 -114 -119
-141 -148 l-50 -53 64 -61 65 -60 140 147 c139 145 141 147 159 127 17 -19 15
-23 -122 -163 l-140 -144 64 -64 63 -64 112 116 c62 65 118 117 125 117 7 0
17 -6 23 -12 7 -10 -20 -45 -104 -133 l-113 -120 85 -86 c80 -80 84 -86 67
-101 -10 -8 -23 -14 -29 -11 -9 3 -153 -145 -162 -167 -1 -4 22 -28 53 -54 30
-26 55 -51 55 -55 0 -4 -6 -16 -14 -27 -14 -18 -17 -16 -76 41 l-60 60 -83
-83 -82 -83 45 -39 c45 -38 45 -38 26 -59 l-20 -22 -43 43 -43 42 -79 -78
c-72 -72 -80 -77 -101 -66 -22 12 -21 14 51 88 41 42 78 80 84 84 11 8 -21 45
-78 91 l-39 30 -161 -161 c-148 -146 -164 -159 -186 -151 -23 9 -19 15 99 137
67 70 143 146 169 170 l46 42 -63 62 -62 63 -169 -169 c-152 -152 -172 -168
-195 -162 -14 3 -26 10 -26 14 0 4 79 86 175 182 l175 174 -62 63 -61 62 -154
-149 c-145 -142 -181 -167 -199 -139 -4 7 59 77 150 168 l156 156 -60 60 -60
59 -73 -72 c-59 -58 -76 -70 -95 -65 -13 3 -22 9 -20 13 2 5 36 43 77 86 l73
78 -54 52 c-51 49 -53 53 -38 71 15 20 17 19 69 -28 29 -27 56 -49 59 -49 4 0
41 34 82 75 l74 75 -61 62 c-61 62 -62 63 -44 85 l18 22 64 -65 64 -65 83 86
82 86 -67 64 -68 63 19 21 20 22 66 -66 66 -66 94 96 c52 52 96 95 100 95 3 0
11 -5 18 -12z"/>
<path d="M6122 6317 l-83 -83 64 -61 64 -62 84 85 83 84 -59 60 c-33 33 -62
60 -65 60 -3 0 -43 -37 -88 -83z"/>
<path d="M6287 6157 l-76 -84 57 -56 c32 -32 62 -57 68 -57 9 0 54 45 129 128
l29 32 -59 60 c-33 33 -62 60 -66 60 -3 0 -40 -38 -82 -83z"/>
<path d="M5923 6112 l-72 -77 60 -61 60 -61 81 80 80 81 -64 57 c-34 32 -65
58 -68 58 -3 -1 -37 -35 -77 -77z"/>
<path d="M6457 6002 c-43 -43 -77 -82 -77 -87 0 -6 27 -35 61 -65 l61 -55 79
81 c44 44 79 83 79 86 0 3 -29 31 -63 61 l-64 56 -76 -77z"/>
<path d="M6088 5953 l-77 -77 65 -61 66 -60 78 80 79 79 -61 56 c-34 30 -64
56 -67 58 -3 1 -41 -33 -83 -75z"/>
<path d="M6615 5838 l-77 -81 59 -59 59 -59 80 81 c43 45 79 85 79 89 0 8
-109 111 -118 111 -3 0 -39 -37 -82 -82z"/>
<path d="M6257 5792 l-77 -77 61 -61 61 -61 78 81 79 81 -57 58 c-31 31 -59
57 -62 57 -3 0 -40 -35 -83 -78z"/>
<path d="M6418 5635 l-78 -81 59 -58 59 -58 79 81 78 81 -60 58 -60 58 -77
-81z"/>
<path d="M5242 5012 c-61 -76 -202 -171 -332 -222 -30 -12 -93 -30 -139 -39
l-83 -18 68 -40 c179 -107 373 -256 552 -427 53 -50 92 -82 88 -71 -17 46 -66
261 -81 361 -10 59 -22 195 -29 302 l-11 194 -33 -40z"/>
<path d="M9050 5763 c-99 -16 -150 -56 -150 -116 0 -51 15 -76 55 -93 124 -51
265 49 265 189 l0 27 -72 -1 c-40 -1 -84 -4 -98 -6z"/>
<path d="M9545 4275 c-5 -2 -27 -6 -48 -10 -21 -3 -53 -20 -72 -37 -30 -25
-35 -37 -35 -73 0 -55 23 -83 77 -96 122 -27 242 64 243 184 l0 37 -77 -1
c-43 0 -82 -2 -88 -4z"/>
</g>
</svg>
